<svg width="33" height="32" viewBox="0 0 33 32" fill="none" xmlns="http://www.w3.org/2000/svg">
<path d="M1.70926 0.293263C1.61629 0.200287 1.50591 0.126535 1.38443 0.0762167C1.26295 0.0258985 1.13275 9.7966e-10 1.00126 0C0.869775 -9.7966e-10 0.739575 0.0258985 0.618096 0.0762167C0.496618 0.126535 0.386239 0.200287 0.293263 0.293263C0.200287 0.386239 0.126535 0.496618 0.0762167 0.618096C0.0258985 0.739575 -9.7966e-10 0.869775 0 1.00126C9.7966e-10 1.13275 0.0258985 1.26295 0.0762167 1.38443C0.126535 1.50591 0.200287 1.61629 0.293263 1.70926L6.35526 7.76926C4.94111 8.59971 3.63917 9.60792 2.48126 10.7693C1.65533 11.6082 0.905086 12.5184 0.239263 13.4893C0.0982405 13.7072 0.0474884 13.9714 0.0977354 14.2261C0.147982 14.4808 0.295291 14.7059 0.50852 14.854C0.72175 15.002 0.984189 15.0613 1.24036 15.0194C1.49653 14.9775 1.72636 14.8376 1.88126 14.6293C2.4793 13.7556 3.15324 12.9364 3.89526 12.1813C5.05697 11.0165 6.37978 10.0244 7.82326 9.23526L10.6953 12.1073C9.302 12.745 8.03456 13.6276 6.95326 14.7133C5.98779 15.6759 5.18231 16.7865 4.56726 18.0033C4.50703 18.1205 4.47055 18.2485 4.45995 18.3798C4.44934 18.5112 4.46481 18.6434 4.50546 18.7688C4.54612 18.8941 4.61115 19.0102 4.69683 19.1104C4.7825 19.2105 4.88713 19.2927 5.0047 19.3523C5.12226 19.4119 5.25045 19.4476 5.38188 19.4575C5.5133 19.4674 5.64538 19.4512 5.77052 19.4098C5.89566 19.3684 6.01139 19.3027 6.11106 19.2165C6.21072 19.1303 6.29236 19.0252 6.35126 18.9073C6.8707 17.879 7.5513 16.9405 8.36726 16.1273C9.45875 15.0308 10.7731 14.1816 12.2213 13.6373L15.9313 17.3493C13.8409 17.3829 11.8459 18.2294 10.3693 19.7093C9.65728 20.4252 9.08724 21.2693 8.68926 22.1973C8.59262 22.4385 8.59371 22.7079 8.69229 22.9484C8.79086 23.1889 8.97919 23.3815 9.21737 23.4855C9.45555 23.5895 9.72486 23.5967 9.96825 23.5056C10.2116 23.4145 10.41 23.2321 10.5213 22.9973C10.8313 22.2873 11.2573 21.6493 11.7813 21.1233C12.6284 20.2739 13.7085 19.6951 14.8849 19.4601C16.0612 19.2251 17.2808 19.3445 18.3893 19.8033L21.6813 23.0973C21.7733 23.2663 21.9122 23.4052 22.0813 23.4973L30.2913 31.7093C30.3842 31.8022 30.4946 31.876 30.6161 31.9263C30.7376 31.9766 30.8678 32.0025 30.9993 32.0025C31.1308 32.0025 31.261 31.9766 31.3824 31.9263C31.5039 31.876 31.6143 31.8022 31.7073 31.7093C31.8002 31.6163 31.874 31.5059 31.9243 31.3844C31.9746 31.263 32.0005 31.1328 32.0005 31.0013C32.0005 30.8698 31.9746 30.7396 31.9243 30.6181C31.874 30.4966 31.8002 30.3862 31.7073 30.2933L1.70926 0.293263ZM15.2093 10.9653L17.2413 13.0013C19.7155 13.2646 22.0242 14.3695 23.7813 16.1313C24.5959 16.957 25.2774 17.9043 25.8013 18.9393C25.9219 19.1756 26.1315 19.3543 26.384 19.436C26.6364 19.5178 26.911 19.4959 27.1473 19.3753C27.3836 19.2546 27.5623 19.045 27.644 18.7926C27.7258 18.5401 27.7039 18.2656 27.5833 18.0293C26.9639 16.8081 26.1582 15.6907 25.1953 14.7173C23.895 13.4149 22.3307 12.4064 20.6078 11.7595C18.8849 11.1126 17.0434 10.8425 15.2073 10.9673M10.2713 6.02926L11.8913 7.64926C15.3038 6.79558 18.8958 7.00747 22.1843 8.25642C25.4728 9.50537 28.2999 11.7315 30.2853 14.6353C30.4367 14.8515 30.6676 14.9991 30.9274 15.0458C31.1873 15.0926 31.4551 15.0346 31.6724 14.8846C31.8897 14.7347 32.0389 14.5048 32.0874 14.2453C32.1359 13.9858 32.0797 13.7176 31.9313 13.4993C29.6007 10.0944 26.2364 7.52996 22.3357 6.18506C18.4349 4.84017 14.205 4.78424 10.2713 6.02926ZM17.9273 23.5773C18.1684 23.8184 18.3596 24.1046 18.4901 24.4196C18.6206 24.7346 18.6878 25.0723 18.6878 25.4133C18.6878 25.7542 18.6206 26.0919 18.4901 26.4069C18.3596 26.7219 18.1684 27.0082 17.9273 27.2493C17.6862 27.4904 17.3999 27.6816 17.0849 27.8121C16.7699 27.9426 16.4322 28.0098 16.0913 28.0098C15.7503 28.0098 15.4126 27.9426 15.0976 27.8121C14.7826 27.6816 14.4964 27.4904 14.2553 27.2493C13.7683 26.7623 13.4948 26.1019 13.4948 25.4133C13.4948 24.7246 13.7683 24.0642 14.2553 23.5773C14.7422 23.0903 15.4026 22.8168 16.0913 22.8168C16.7799 22.8168 17.4403 23.0903 17.9273 23.5773Z" fill="#9D9495"/>
</svg>
